<svg width="30" height="30" viewBox="0 0 30 30" fill="none" xmlns="http://www.w3.org/2000/svg">
<path d="M14.7494 9.13281C17.9049 9.13281 20.4634 11.7219 20.4634 14.9162C20.4634 18.11 17.9049 20.6995 14.7494 20.6995C11.5934 20.6995 9.0353 18.11 9.0353 14.9162C9.0353 11.7219 11.5934 9.13281 14.7494 9.13281Z" fill="black" stroke="white" stroke-width="0.7"/>
<path d="M13.5156 1.00391C13.9719 1.00318 14.4809 1.00391 15.0527 1.00391C19.6294 1.00391 20.1723 1.02137 21.9795 1.10449C23.6509 1.18184 24.5588 1.46369 25.1631 1.70117C25.9629 2.01562 26.5333 2.39184 27.1328 2.99902C27.7327 3.60616 28.1037 4.1847 28.415 4.99414C28.6497 5.60498 28.9298 6.52336 29.0059 8.21484C29.088 10.0438 29.1055 10.5935 29.1055 15.2236C29.1055 19.8539 29.088 20.4035 29.0059 22.2324C28.9294 23.924 28.6497 24.8423 28.415 25.4531C28.1044 26.2627 27.7327 26.8395 27.1328 27.4463C26.5329 28.0535 25.9633 28.4297 25.1631 28.7441C24.5595 28.9827 23.6509 29.2644 21.9795 29.3418C20.1727 29.4249 19.6294 29.4424 15.0527 29.4424C10.4757 29.4424 9.93301 29.4249 8.12598 29.3418C6.45488 29.2637 5.54796 28.9806 4.94336 28.7432C4.14339 28.4287 3.57166 28.0526 2.97168 27.4453C2.37185 26.8382 1.99985 26.2611 1.68848 25.4512C1.4539 24.8404 1.17471 23.9223 1.09863 22.2314C1.01649 20.4025 1 19.8526 1 15.2197C1 10.5867 1.0165 10.0398 1.09863 8.21094C1.17506 6.51931 1.45384 5.60085 1.68848 4.98926C1.99918 4.17959 2.3717 3.60139 2.97168 2.99414C3.57166 2.38689 4.14339 2.01148 4.94336 1.69629C5.5476 1.45774 6.45481 1.17538 8.12598 1.09766C9.70734 1.02536 10.3208 1.00361 13.5156 1V1.00391ZM14.5996 6.3291C9.94878 6.56795 6.25014 10.461 6.25 15.2275C6.25 20.148 10.1913 24.1356 15.0527 24.1357C19.9143 24.1357 23.8545 20.1481 23.8545 15.2275C23.8544 10.3071 19.9142 6.31743 15.0527 6.31738L14.5996 6.3291ZM24.2031 3.88574C23.0676 3.88587 22.1465 4.81707 22.1465 5.9668C22.1466 7.11605 23.0676 8.0487 24.2031 8.04883C25.3387 8.04883 26.2606 7.11613 26.2607 5.9668C26.2607 4.81736 25.3388 3.88477 24.2031 3.88477V3.88574Z" fill="black"/>
<path d="M13.5156 1.00391H13.1656V1.35446L13.5162 1.35391L13.5156 1.00391ZM15.0527 1.00391V1.35391V1.00391ZM21.9795 1.10449L21.9957 0.754866L21.9956 0.754862L21.9795 1.10449ZM25.1631 1.70117L25.2911 1.37544L25.2911 1.37543L25.1631 1.70117ZM27.1328 2.99902L26.8838 3.24494L26.8838 3.24501L27.1328 2.99902ZM28.415 4.99414L28.7418 4.86864L28.7417 4.86848L28.415 4.99414ZM29.0059 8.21484L29.3555 8.19914L29.3555 8.19912L29.0059 8.21484ZM29.1055 15.2236H29.4555H29.1055ZM29.0059 22.2324L29.3555 22.2482L29.3555 22.2481L29.0059 22.2324ZM28.415 25.4531L28.0883 25.3276L28.0883 25.3277L28.415 25.4531ZM27.1328 27.4463L26.8839 27.2002L26.8838 27.2003L27.1328 27.4463ZM25.1631 28.7441L25.0351 28.4184L25.0344 28.4186L25.1631 28.7441ZM21.9795 29.3418L21.9956 29.6914L21.9957 29.6914L21.9795 29.3418ZM15.0527 29.4424V29.7924V29.4424ZM8.12598 29.3418L8.10964 29.6914L8.10989 29.6914L8.12598 29.3418ZM4.94336 28.7432L4.81531 29.0689L4.81541 29.0689L4.94336 28.7432ZM2.97168 27.4453L2.72269 27.6913L2.72271 27.6913L2.97168 27.4453ZM1.68848 25.4512L1.36174 25.5766L1.36179 25.5768L1.68848 25.4512ZM1.09863 22.2314L0.748985 22.2471L0.748987 22.2472L1.09863 22.2314ZM1 15.2197H0.65H1ZM1.09863 8.21094L0.748989 8.19514L0.748985 8.19523L1.09863 8.21094ZM1.68848 4.98926L1.36171 4.86386L1.3617 4.86389L1.68848 4.98926ZM2.97168 2.99414L2.72271 2.74815L2.97168 2.99414ZM4.94336 1.69629L5.07166 2.02192L5.07188 2.02184L4.94336 1.69629ZM8.12598 1.09766L8.10999 0.748021L8.10972 0.748034L8.12598 1.09766ZM13.5156 1H13.8656V0.649604L13.5152 0.65L13.5156 1ZM14.5996 6.3291L14.5906 5.9791L14.5817 5.97956L14.5996 6.3291ZM6.25 15.2275L5.9 15.2275V15.2275H6.25ZM15.0527 24.1357L15.0527 24.4857H15.0527V24.1357ZM23.8545 15.2275H24.2045V15.2275L23.8545 15.2275ZM15.0527 6.31738L15.0527 5.96727L15.0437 5.9675L15.0527 6.31738ZM24.2031 3.88574L24.2032 4.23574L24.5531 4.2357V3.88574H24.2031ZM22.1465 5.9668H21.7965V5.96684L22.1465 5.9668ZM24.2031 8.04883L24.2031 8.39883H24.2031V8.04883ZM26.2607 5.9668L26.6107 5.96684V5.9668H26.2607ZM24.2031 3.88477V3.53477H23.8531V3.88477H24.2031ZM13.5156 1.00391L13.5162 1.35391C13.9721 1.35318 14.4802 1.35391 15.0527 1.35391V1.00391V0.653906C14.4816 0.653906 13.9716 0.653184 13.5151 0.653907L13.5156 1.00391ZM15.0527 1.00391V1.35391C19.6279 1.35391 20.1645 1.37138 21.9634 1.45412L21.9795 1.10449L21.9956 0.754862C20.1803 0.671364 19.6309 0.653906 15.0527 0.653906V1.00391ZM21.9795 1.10449L21.9633 1.45412C23.5958 1.52967 24.466 1.80328 25.0351 2.02692L25.1631 1.70117L25.2911 1.37543C24.6516 1.12411 23.7059 0.834018 21.9957 0.754866L21.9795 1.10449ZM25.1631 1.70117L25.035 2.0269C25.7896 2.32355 26.3187 2.67266 26.8838 3.24494L27.1328 2.99902L27.3819 2.75311C26.7478 2.11102 26.1362 1.70768 25.2911 1.37544L25.1631 1.70117ZM27.1328 2.99902L26.8838 3.24501C27.449 3.81705 27.7939 4.35436 28.0884 5.1198L28.415 4.99414L28.7417 4.86848C28.4134 4.01503 28.0163 3.39528 27.3818 2.75303L27.1328 2.99902ZM28.415 4.99414L28.0883 5.11964C28.3097 5.69604 28.5819 6.5774 28.6562 8.23057L29.0059 8.21484L29.3555 8.19912C29.2777 6.46932 28.9896 5.51391 28.7418 4.86864L28.415 4.99414ZM29.0059 8.21484L28.6562 8.23055C28.738 10.0515 28.7555 10.595 28.7555 15.2236H29.1055H29.4555C29.4555 10.592 29.438 10.0361 29.3555 8.19914L29.0059 8.21484ZM29.1055 15.2236H28.7555C28.7555 19.8524 28.738 20.3957 28.6562 22.2167L29.0059 22.2324L29.3555 22.2481C29.438 20.4112 29.4555 19.8554 29.4555 15.2236H29.1055ZM29.0059 22.2324L28.6562 22.2166C28.5815 23.87 28.3097 24.7512 28.0883 25.3276L28.415 25.4531L28.7418 25.5786C28.9896 24.9333 29.2774 23.9781 29.3555 22.2482L29.0059 22.2324ZM28.415 25.4531L28.0883 25.3277C27.7947 26.0927 27.4494 26.6282 26.8839 27.2002L27.1328 27.4463L27.3817 27.6924C28.016 27.0507 28.414 26.4327 28.7418 25.5785L28.415 25.4531ZM27.1328 27.4463L26.8838 27.2003C26.3183 27.7727 25.7898 28.1218 25.0351 28.4184L25.1631 28.7441L25.2911 29.0699C26.1367 28.7376 26.7475 28.3342 27.3818 27.6923L27.1328 27.4463ZM25.1631 28.7441L25.0344 28.4186C24.4666 28.6431 23.5959 28.9166 21.9633 28.9922L21.9795 29.3418L21.9957 29.6914C23.7058 29.6123 24.6524 29.3223 25.2917 29.0696L25.1631 28.7441ZM21.9795 29.3418L21.9634 28.9922C20.1648 29.0749 19.6279 29.0924 15.0527 29.0924V29.4424V29.7924C19.6309 29.7924 20.1806 29.7749 21.9956 29.6914L21.9795 29.3418ZM15.0527 29.4424V29.0924C10.4772 29.0924 9.94091 29.0749 8.14206 28.9922L8.12598 29.3418L8.10989 29.6914C9.92511 29.7749 10.4742 29.7924 15.0527 29.7924V29.4424ZM8.12598 29.3418L8.14231 28.9922C6.51036 28.9159 5.6411 28.6412 5.07131 28.4174L4.94336 28.7432L4.81541 29.0689C5.45482 29.3201 6.39939 29.6115 8.10964 29.6914L8.12598 29.3418ZM4.94336 28.7432L5.07141 28.4174C4.31647 28.1207 3.78602 27.7715 3.22065 27.1993L2.97168 27.4453L2.72271 27.6913C3.35729 28.3336 3.97031 28.7367 4.81531 29.0689L4.94336 28.7432ZM2.97168 27.4453L3.22067 27.1993C2.65517 26.6269 2.30942 26.091 2.01517 25.3256L1.68848 25.4512L1.36179 25.5768C1.69027 26.4312 2.08853 27.0494 2.72269 27.6913L2.97168 27.4453ZM1.68848 25.4512L2.01521 25.3257C1.79392 24.7495 1.52264 23.8684 1.44828 22.2157L1.09863 22.2314L0.748987 22.2472C0.826777 23.9762 1.11389 24.9313 1.36174 25.5766L1.68848 25.4512ZM1.09863 22.2314L1.44828 22.2157C1.3665 20.3949 1.35 19.8513 1.35 15.2197H1H0.65C0.650001 19.854 0.666486 20.4101 0.748985 22.2471L1.09863 22.2314ZM1 15.2197H1.35C1.35 10.588 1.36651 10.0474 1.44828 8.22664L1.09863 8.21094L0.748985 8.19523C0.666491 10.0321 0.65 10.5854 0.65 15.2197H1ZM1.09863 8.21094L1.44828 8.22673C1.52298 6.57312 1.79389 5.69163 2.01525 5.11462L1.68848 4.98926L1.3617 4.86389C1.1138 5.51007 0.827133 6.4655 0.748989 8.19514L1.09863 8.21094ZM1.68848 4.98926L2.01524 5.11465C2.30882 4.34961 2.65505 3.8126 3.22065 3.24013L2.97168 2.99414L2.72271 2.74815C2.08836 3.39018 1.68954 4.00957 1.36171 4.86386L1.68848 4.98926ZM2.97168 2.99414L3.22065 3.24013C3.78589 2.66804 4.31636 2.31952 5.07166 2.02192L4.94336 1.69629L4.81506 1.37065C3.97042 1.70345 3.35742 2.10574 2.72271 2.74815L2.97168 2.99414ZM4.94336 1.69629L5.07188 2.02184C5.64069 1.79728 6.51 1.52319 8.14224 1.44728L8.12598 1.09766L8.10972 0.748034C6.39962 0.827565 5.45451 1.11821 4.81484 1.37074L4.94336 1.69629ZM8.12598 1.09766L8.14196 1.44729C9.71662 1.37531 10.3246 1.35361 13.516 1.35L13.5156 1L13.5152 0.65C10.3169 0.653619 9.69806 0.675423 8.10999 0.748021L8.12598 1.09766ZM13.5156 1H13.1656V1.00391H13.5156H13.8656V1H13.5156ZM14.5996 6.3291L14.5817 5.97956C9.74201 6.22811 5.90014 10.2774 5.9 15.2275L6.25 15.2275L6.6 15.2275C6.60013 10.6446 10.1555 6.9078 14.6176 6.67864L14.5996 6.3291ZM6.25 15.2275H5.9C5.9 20.3374 9.99408 24.4856 15.0527 24.4857L15.0527 24.1357L15.0527 23.7857C10.3885 23.7856 6.6 19.9586 6.6 15.2275H6.25ZM15.0527 24.1357V24.4857C20.1116 24.4857 24.2045 20.3374 24.2045 15.2275H23.8545H23.5045C23.5045 19.9588 19.7171 23.7857 15.0527 23.7857V24.1357ZM23.8545 15.2275L24.2045 15.2275C24.2043 10.1179 20.1116 5.96743 15.0527 5.96738L15.0527 6.31738L15.0527 6.66738C19.7168 6.66742 23.5044 10.4964 23.5045 15.2275L23.8545 15.2275ZM15.0527 6.31738L15.0437 5.9675L14.5906 5.97922L14.5996 6.3291L14.6087 6.67898L15.0618 6.66727L15.0527 6.31738ZM24.2031 3.88574L24.2031 3.53574C22.8705 3.53589 21.7965 4.62757 21.7965 5.9668H22.1465H22.4965C22.4965 5.00658 23.2646 4.23585 24.2032 4.23574L24.2031 3.88574ZM22.1465 5.9668L21.7965 5.96684C21.7966 7.30527 22.8703 8.39868 24.2031 8.39883L24.2031 8.04883L24.2032 7.69883C23.265 7.69872 22.4966 6.92683 22.4965 5.96676L22.1465 5.9668ZM24.2031 8.04883V8.39883C25.5359 8.39883 26.6106 7.30552 26.6107 5.96684L26.2607 5.9668L25.9107 5.96676C25.9106 6.92673 25.1415 7.69883 24.2031 7.69883V8.04883ZM26.2607 5.9668H26.6107C26.6107 4.62793 25.5359 3.53477 24.2031 3.53477V3.88477V4.23477C25.1416 4.23477 25.9107 5.00679 25.9107 5.9668H26.2607ZM24.2031 3.88477H23.8531V3.88574H24.2031H24.5531V3.88477H24.2031Z" fill="white"/>
</svg>
