<svg width="30" height="30" viewBox="0 0 30 30" fill="none" xmlns="http://www.w3.org/2000/svg">
<path d="M14.9589 1C7.19178 1 0.89473 7.36234 0.89473 15.21C0.89473 21.2332 4.59887 26.3792 9.83098 28.4493C9.70365 27.3265 9.59947 25.5956 9.87728 24.3676C10.1319 23.2565 11.521 17.3035 11.521 17.3035C11.521 17.3035 11.1043 16.4497 11.1043 15.1983C11.1043 13.2218 12.2387 11.7482 13.6509 11.7482C14.8547 11.7482 15.4335 12.6604 15.4335 13.7481C15.4335 14.9644 14.6695 16.7889 14.2644 18.4848C13.9287 19.8999 14.9705 21.0578 16.348 21.0578C18.8483 21.0578 20.7698 18.3912 20.7698 14.5551C20.7698 11.1517 18.3505 8.7775 14.8895 8.7775C10.8843 8.7775 8.53453 11.8066 8.53453 14.941C8.53453 16.1573 8.99755 17.4672 9.57632 18.1807C9.69207 18.321 9.70365 18.4497 9.66892 18.59C9.56474 19.0344 9.32166 20.0052 9.27536 20.204C9.21748 20.4613 9.067 20.5198 8.80076 20.3911C7.04129 19.5607 5.94163 16.976 5.94163 14.8825C5.94163 10.4032 9.1596 6.28636 15.2367 6.28636C20.11 6.28636 23.9067 9.795 23.9067 14.4966C23.9067 19.397 20.8508 23.3384 16.6142 23.3384C15.1904 23.3384 13.8477 22.5899 13.3962 21.701C13.3962 21.701 12.6901 24.4144 12.5165 25.081C12.2039 26.3207 11.3474 27.8645 10.7686 28.8119C12.0882 29.2212 13.4772 29.4434 14.9358 29.4434C22.7029 29.4434 28.9999 23.0811 28.9999 15.2334C29.0231 7.36234 22.726 1 14.9589 1Z" fill="black" stroke="#FDFDFD" stroke-width="0.7"/>
</svg>
