<svg width="28" height="22" viewBox="0 0 28 22" fill="none" xmlns="http://www.w3.org/2000/svg">
<path d="M26.7715 0.361328C27.0348 0.387372 27.2386 0.457734 27.3799 0.568359C27.5073 0.668268 27.6096 0.822101 27.6475 1.08008C27.5479 3.06437 27.1563 5.01839 26.8779 7.04004C26.1781 11.4469 25.3691 15.8383 24.5791 20.2373C24.4694 20.8279 24.0197 21.2979 23.4395 21.5186C22.8605 21.7386 22.1977 21.6928 21.6904 21.3086L21.6797 21.2998L21.668 21.293L17.2002 18.4375C15.7242 17.4914 14.2539 16.5399 12.7979 15.5732C12.6228 15.3982 12.5404 15.218 12.5146 15.0391C12.4873 14.8488 12.5195 14.637 12.6084 14.4121C12.789 13.9554 13.179 13.5048 13.5742 13.2002L13.5996 13.1787C14.8177 12.0399 16.0717 10.988 17.3223 9.91016C18.5696 8.83507 19.8097 7.73714 20.9824 6.52051L21.0254 6.47559L21.0508 6.41797C21.1355 6.22396 21.1925 6.04382 21.2051 5.88379C21.2177 5.72282 21.1876 5.52185 21.0234 5.37891C20.8708 5.24608 20.6822 5.23574 20.5566 5.24609C20.4232 5.25714 20.2844 5.29766 20.1562 5.34473C19.6546 5.52904 18.9991 5.94986 18.7139 6.12305L18.7041 6.12988C15.3351 8.3324 12.0859 10.6425 8.56641 12.5605C7.75573 12.982 6.86431 13.0218 5.92871 12.8789C4.98777 12.7351 4.05265 12.4176 3.13477 12.1494C2.74039 11.9948 2.26026 11.8244 1.8584 11.6699C1.43203 11.506 1.05003 11.344 0.765625 11.1787C0.623996 11.0964 0.518636 11.0202 0.447266 10.9512C0.37456 10.8808 0.355714 10.836 0.351562 10.8193C0.350388 10.8147 0.344805 10.8012 0.369141 10.7598C0.398251 10.7103 0.465224 10.6325 0.606445 10.5322C3.44641 9.05028 6.61122 7.8124 9.60156 6.55566L9.60254 6.55664C14.7394 4.50107 19.8936 2.48163 25.0986 0.602539C25.5906 0.447737 26.2412 0.308901 26.7715 0.361328Z" stroke="white" stroke-width="0.7"/>
</svg>
