<svg width="29" height="20" viewBox="0 0 29 20" fill="none" xmlns="http://www.w3.org/2000/svg">
<path d="M11.8672 4.43164C11.8027 3.12306 11.4675 2.3885 11.1377 1.86426C11.0583 1.73802 10.9798 1.62553 10.9121 1.52734C10.8425 1.42637 10.7862 1.34241 10.7393 1.2627C10.6495 1.11025 10.6085 0.992405 10.6084 0.854492C10.6084 0.570625 10.8052 0.349675 11.0566 0.349609H16.0322C16.2873 0.349609 16.3901 0.423862 16.4541 0.521484C16.5411 0.654401 16.6035 0.904814 16.6035 1.35254V8.64746C16.6035 9.07441 16.6784 9.40767 16.8145 9.64746C16.9502 9.88646 17.1722 10.0654 17.4453 10.0654C17.7462 10.0654 18.0043 9.9511 18.2715 9.74121C18.5276 9.53999 18.8167 9.23196 19.1846 8.80566L19.1963 8.79004C20.3566 7.28209 21.3451 5.37684 22.04 3.86035C22.3885 3.09994 22.6656 2.43263 22.8555 1.95508C22.9503 1.71643 23.0236 1.52479 23.0732 1.39258C23.098 1.32667 23.1171 1.27519 23.1299 1.24023C23.1362 1.22293 23.1412 1.20932 23.1445 1.2002C23.1462 1.19563 23.1476 1.19186 23.1484 1.18945L23.1494 1.18652C23.2459 0.95021 23.3646 0.753282 23.5225 0.615234C23.6746 0.482263 23.8836 0.385742 24.2021 0.385742H27.3652C27.7784 0.385742 27.9237 0.506216 27.9805 0.599609C28.0512 0.716059 28.0789 0.936166 27.9805 1.29492L27.9766 1.30957L27.9736 1.32324C27.8829 1.80861 27.5847 2.56925 27.166 3.46387C26.7521 4.34831 26.2355 5.33275 25.7305 6.25488C25.2258 7.17625 24.7341 8.03229 24.3701 8.6582C24.1881 8.97131 24.0377 9.22612 23.9336 9.4043C23.882 9.49262 23.8413 9.56355 23.8135 9.6123C23.7999 9.63616 23.7872 9.65818 23.7783 9.6748C23.7751 9.68078 23.7707 9.69057 23.7656 9.70117C23.6059 10.0041 23.4515 10.3011 23.4307 10.627C23.4083 10.9761 23.5383 11.3015 23.7832 11.6807V11.6816C23.9709 11.9782 24.3568 12.4143 24.7568 12.8691C25.1696 13.3384 25.6203 13.8518 25.9785 14.3359L25.9814 14.3398C26.6559 15.2279 27.2475 16.0373 27.7041 16.75C28.1644 17.4684 28.47 18.0628 28.5938 18.5244C28.7024 18.9879 28.6388 19.2543 28.5342 19.3975C28.4335 19.5351 28.2267 19.6504 27.8262 19.6504H24.6631C24.2202 19.6504 23.9173 19.463 23.4277 18.8916C23.1795 18.6018 22.9023 18.2366 22.542 17.7734C22.1847 17.3142 21.7539 16.7708 21.2109 16.1416L21.208 16.1367L20.8672 15.7637C19.221 13.9907 18.3737 13.6358 17.7832 13.6357C17.4555 13.6357 17.0784 13.6729 16.8418 14.0049C16.735 14.1549 16.6791 14.3364 16.6475 14.5293C16.6156 14.7238 16.6035 14.9576 16.6035 15.2314V18.541C16.6035 18.9689 16.5392 19.1721 16.3623 19.3096C16.1488 19.4755 15.6895 19.6143 14.6807 19.6143C11.4958 19.6141 7.87727 17.3696 5.30664 13.0596L5.30469 13.0557L4.94629 12.4639C3.19821 9.52804 2.0636 6.95233 1.3584 4.97559C0.982296 3.9213 0.729235 3.03829 0.570312 2.36328C0.409401 1.67977 0.349649 1.23006 0.349609 1.03223C0.349609 0.784869 0.389074 0.629644 0.464844 0.535156C0.527723 0.456834 0.674621 0.349609 1.0752 0.349609H4.26953C4.60431 0.349671 4.77651 0.428525 4.90625 0.56543C5.02117 0.686791 5.12593 0.877212 5.23535 1.18066L5.34668 1.52344C6.13637 4.16082 7.18938 6.63956 8.18457 8.46387C8.68148 9.37474 9.16971 10.1333 9.60938 10.6689C9.82863 10.936 10.0443 11.1582 10.251 11.3164C10.4487 11.4678 10.6836 11.5956 10.9336 11.5957C11.0605 11.5957 11.2113 11.5792 11.3555 11.5039C11.5075 11.4245 11.6169 11.2989 11.6914 11.1436C11.8258 10.8632 11.8672 10.4406 11.8672 9.85742V4.43164Z" stroke="white" stroke-width="0.7"/>
</svg>
