<svg width="29" height="30" viewBox="0 0 29 30" fill="none" xmlns="http://www.w3.org/2000/svg">
<path d="M14.5323 1C18.2855 1.00141 21.8138 2.4818 24.4668 5.16895C27.12 7.85622 28.5796 11.4288 28.5782 15.2275C28.5749 23.0664 22.2715 29.4443 14.5264 29.4443H14.5206C11.999 29.4433 9.52571 28.7572 7.36821 27.4619L6.85551 27.1543L1.53716 28.5654L2.9561 23.3193L2.62212 22.7812C1.21559 20.5179 0.472627 17.902 0.473679 15.2158C0.476753 7.37732 6.78103 1 14.5323 1ZM8.54106 7.31543C8.25945 7.31543 7.80132 7.4227 7.41411 7.85059C7.02682 8.27852 5.93559 9.31262 5.93559 11.416C5.93569 13.5192 7.44844 15.551 7.6602 15.8369C7.87141 16.1223 10.6393 20.4387 14.877 22.29C15.8847 22.7303 16.6717 22.9935 17.2852 23.1904C18.2972 23.5158 19.2186 23.4704 19.9463 23.3604C20.7581 23.2376 22.4457 22.3263 22.7979 21.3281C23.1496 20.3301 23.1494 19.4747 23.044 19.2959C22.9384 19.1176 22.6569 19.0099 22.2344 18.7959C21.8117 18.5818 19.7353 17.5492 19.3477 17.4062C18.9606 17.2637 18.6791 17.1924 18.3975 17.6201C18.1158 18.048 17.306 19.0107 17.0596 19.2959C16.8132 19.5808 16.5667 19.6163 16.1446 19.4023C15.7221 19.1884 14.3607 18.7374 12.7471 17.2812C11.4913 16.148 10.644 14.7483 10.3975 14.3203C10.1511 13.8925 10.3706 13.6613 10.5821 13.4482C10.7721 13.2567 11.0047 12.9487 11.2159 12.6992C11.427 12.4498 11.4979 12.2713 11.6387 11.9863C11.7793 11.7011 11.7092 11.4512 11.6036 11.2373C11.4975 11.0222 10.6528 8.92003 10.3008 8.06445C9.95807 7.2315 9.60988 7.34408 9.35063 7.33105C9.10464 7.31855 8.8225 7.31543 8.54106 7.31543Z" fill="black"/>
<path d="M14.5323 1L14.5324 0.65H14.5323V1ZM24.4668 5.16895L24.7159 4.92305L24.7159 4.92304L24.4668 5.16895ZM28.5782 15.2275L28.9282 15.2277V15.2277L28.5782 15.2275ZM14.5264 29.4443V29.7943V29.4443ZM14.5206 29.4443L14.5204 29.7943H14.5206V29.4443ZM7.36821 27.4619L7.54836 27.1618L7.54828 27.1618L7.36821 27.4619ZM6.85551 27.1543L7.03559 26.8542L6.90874 26.7781L6.76575 26.816L6.85551 27.1543ZM1.53716 28.5654L1.1993 28.474L1.04103 29.0592L1.62692 28.9037L1.53716 28.5654ZM2.9561 23.3193L3.29396 23.4107L3.33366 23.2639L3.25347 23.1348L2.9561 23.3193ZM2.62212 22.7812L2.91949 22.5967L2.91939 22.5965L2.62212 22.7812ZM0.473679 15.2158L0.123679 15.2157L0.473679 15.2158ZM8.54106 7.31543L8.54107 6.96543H8.54106V7.31543ZM7.41411 7.85059L7.67361 8.08544L7.67362 8.08543L7.41411 7.85059ZM5.93559 11.416H5.58559V11.416L5.93559 11.416ZM7.6602 15.8369L7.94153 15.6287L7.94145 15.6286L7.6602 15.8369ZM14.877 22.29L15.0171 21.9693L15.0171 21.9693L14.877 22.29ZM17.2852 23.1904L17.3923 22.8572L17.3922 22.8572L17.2852 23.1904ZM19.9463 23.3604L19.894 23.0143L19.894 23.0143L19.9463 23.3604ZM22.7979 21.3281L23.128 21.4446L23.128 21.4444L22.7979 21.3281ZM23.044 19.2959L23.3455 19.1181L23.3451 19.1176L23.044 19.2959ZM22.2344 18.7959L22.3926 18.4837L22.3925 18.4836L22.2344 18.7959ZM19.3477 17.4062L19.4688 17.0779L19.4686 17.0778L19.3477 17.4062ZM18.3975 17.6201L18.1052 17.4277L18.1052 17.4277L18.3975 17.6201ZM17.0596 19.2959L17.3244 19.5248L17.3245 19.5247L17.0596 19.2959ZM16.1446 19.4023L16.3028 19.0901L16.3027 19.0901L16.1446 19.4023ZM12.7471 17.2812L12.5126 17.5411L12.5126 17.5411L12.7471 17.2812ZM10.3975 14.3203L10.0942 14.495L10.0942 14.495L10.3975 14.3203ZM10.5821 13.4482L10.8305 13.6948L10.8305 13.6948L10.5821 13.4482ZM11.2159 12.6992L11.483 12.9254L11.483 12.9254L11.2159 12.6992ZM11.6387 11.9863L11.9525 12.1414L11.9526 12.1411L11.6387 11.9863ZM11.6036 11.2373L11.2896 11.3921L11.2897 11.3923L11.6036 11.2373ZM10.3008 8.06445L10.6245 7.9313L10.6245 7.93126L10.3008 8.06445ZM9.35063 7.33105L9.33287 7.6806L9.33307 7.68061L9.35063 7.33105ZM14.5323 1L14.5321 1.35C18.1912 1.35137 21.6301 2.79383 24.2178 5.41485L24.4668 5.16895L24.7159 4.92304C21.9976 2.16976 18.3798 0.65144 14.5324 0.65L14.5323 1ZM24.4668 5.16895L24.2178 5.41484C26.8057 8.03611 28.2296 11.52 28.2282 15.2274L28.5782 15.2275L28.9282 15.2277C28.9297 11.3375 27.4342 7.67633 24.7159 4.92305L24.4668 5.16895ZM28.5782 15.2275L28.2282 15.2274C28.2249 22.8771 22.0743 29.0943 14.5264 29.0943V29.4443V29.7943C22.4688 29.7943 28.9248 23.2558 28.9282 15.2277L28.5782 15.2275ZM14.5264 29.4443V29.0943H14.5206V29.4443V29.7943H14.5264V29.4443ZM14.5206 29.4443L14.5207 29.0943C12.0625 29.0933 9.65144 28.4244 7.54836 27.1618L7.36821 27.4619L7.18806 27.762C9.39997 29.0899 11.9355 29.7933 14.5204 29.7943L14.5206 29.4443ZM7.36821 27.4619L7.54828 27.1618L7.03559 26.8542L6.85551 27.1543L6.67544 27.4544L7.18814 27.762L7.36821 27.4619ZM6.85551 27.1543L6.76575 26.816L1.44739 28.2271L1.53716 28.5654L1.62692 28.9037L6.94527 27.4926L6.85551 27.1543ZM1.53716 28.5654L1.87501 28.6568L3.29396 23.4107L2.9561 23.3193L2.61824 23.228L1.1993 28.474L1.53716 28.5654ZM2.9561 23.3193L3.25347 23.1348L2.91949 22.5967L2.62212 22.7812L2.32474 22.9658L2.65873 23.5039L2.9561 23.3193ZM2.62212 22.7812L2.91939 22.5965C1.54764 20.3891 0.822653 17.8373 0.823679 15.216L0.473679 15.2158L0.123679 15.2157C0.122602 17.9666 0.883544 20.6467 2.32484 22.966L2.62212 22.7812ZM0.473679 15.2158L0.823679 15.216C0.826679 7.56685 6.97811 1.35 14.5323 1.35V1V0.65C6.58396 0.65 0.126827 7.18779 0.123679 15.2157L0.473679 15.2158ZM8.54106 7.31543V6.96543C8.17779 6.96543 7.61891 7.10266 7.1546 7.61574L7.41411 7.85059L7.67362 8.08543C7.98374 7.74274 8.34111 7.66543 8.54106 7.66543V7.31543ZM7.41411 7.85059L7.1546 7.61573C6.7652 8.04601 5.58559 9.1682 5.58559 11.416H5.93559H6.28559C6.28559 9.45704 7.28845 8.51104 7.67361 8.08544L7.41411 7.85059ZM5.93559 11.416L5.58559 11.416C5.58565 12.5454 5.98979 13.6359 6.40569 14.4649C6.82401 15.2987 7.26938 15.8973 7.37895 16.0452L7.6602 15.8369L7.94145 15.6286C7.83926 15.4906 7.42238 14.9304 7.03136 14.151C6.63792 13.3668 6.28564 12.3898 6.28559 11.416L5.93559 11.416ZM7.6602 15.8369L7.37887 16.0451C7.57128 16.3051 10.3955 20.7141 14.7369 22.6108L14.877 22.29L15.0171 21.9693C10.8832 20.1633 8.17153 15.9395 7.94153 15.6287L7.6602 15.8369ZM14.877 22.29L14.7369 22.6108C15.76 23.0578 16.5594 23.3251 17.1782 23.5237L17.2852 23.1904L17.3922 22.8572C16.7839 22.6619 16.0095 22.4029 15.0171 21.9693L14.877 22.29ZM17.2852 23.1904L17.1781 23.5236C18.2603 23.8716 19.2412 23.821 19.9987 23.7064L19.9463 23.3604L19.894 23.0143C19.1959 23.1199 18.334 23.16 17.3923 22.8572L17.2852 23.1904ZM19.9463 23.3604L19.9987 23.7064C20.4708 23.635 21.1431 23.35 21.7349 22.9662C22.3188 22.5876 22.9119 22.0567 23.128 21.4446L22.7979 21.3281L22.4678 21.2117C22.3316 21.5977 21.9049 22.0217 21.354 22.3789C20.811 22.731 20.2336 22.9629 19.894 23.0143L19.9463 23.3604ZM22.7979 21.3281L23.128 21.4444C23.3139 20.917 23.4079 20.4245 23.4411 20.0345C23.4577 19.8399 23.4596 19.6655 23.4484 19.5215C23.4388 19.3966 23.4161 19.2379 23.3455 19.1181L23.044 19.2959L22.7425 19.4737C22.7246 19.4433 22.7415 19.4586 22.7505 19.5755C22.7581 19.6734 22.7578 19.8088 22.7436 19.9751C22.7153 20.307 22.6336 20.7412 22.4678 21.2118L22.7979 21.3281ZM23.044 19.2959L23.3451 19.1176C23.2416 18.9428 23.0721 18.8336 22.9283 18.7535C22.7855 18.674 22.584 18.5806 22.3926 18.4837L22.2344 18.7959L22.0763 19.1081C22.3073 19.2252 22.4578 19.2927 22.5877 19.3651C22.6476 19.3984 22.6868 19.4243 22.7129 19.4453C22.7382 19.4657 22.7435 19.4754 22.7428 19.4742L23.044 19.2959ZM22.2344 18.7959L22.3925 18.4836C22.1794 18.3757 21.5531 18.0633 20.9314 17.7599C20.3208 17.4619 19.6838 17.1571 19.4688 17.0779L19.3477 17.4062L19.2266 17.7346C19.3993 17.7983 19.9942 18.0814 20.6244 18.3889C21.2435 18.6911 21.8667 19.002 22.0763 19.1082L22.2344 18.7959ZM19.3477 17.4062L19.4686 17.0778C19.2859 17.0105 19.042 16.9228 18.7928 16.9516C18.5044 16.985 18.2828 17.1579 18.1052 17.4277L18.3975 17.6201L18.6898 17.8126C18.7938 17.6546 18.8537 17.6493 18.8733 17.647C18.9319 17.6402 19.0224 17.6594 19.2268 17.7347L19.3477 17.4062ZM18.3975 17.6201L18.1052 17.4277C17.8385 17.8327 17.0452 18.7772 16.7948 19.0671L17.0596 19.2959L17.3245 19.5247C17.5669 19.2442 18.3931 18.2633 18.6898 17.8126L18.3975 17.6201ZM17.0596 19.2959L16.7949 19.067C16.7047 19.1712 16.6542 19.1853 16.6256 19.1888C16.5826 19.194 16.4908 19.1854 16.3028 19.0901L16.1446 19.4023L15.9864 19.7145C16.2205 19.8332 16.4631 19.9138 16.7105 19.8836C16.9722 19.8516 17.1682 19.7055 17.3244 19.5248L17.0596 19.2959ZM16.1446 19.4023L16.3027 19.0901C15.8459 18.8588 14.5499 18.4366 12.9816 17.0214L12.7471 17.2812L12.5126 17.5411C14.1715 19.0381 15.5984 19.5181 15.9865 19.7146L16.1446 19.4023ZM12.7471 17.2812L12.9816 17.0214C11.7671 15.9254 10.9417 14.5638 10.7008 14.1456L10.3975 14.3203L10.0942 14.495C10.3463 14.9327 11.2155 16.3706 12.5126 17.5411L12.7471 17.2812ZM10.3975 14.3203L10.7008 14.1456C10.6186 14.0029 10.6386 13.9463 10.6468 13.9241C10.6667 13.8696 10.7159 13.8103 10.8305 13.6948L10.5821 13.4482L10.3336 13.2017C10.2368 13.2993 10.0705 13.4621 9.98945 13.6834C9.89654 13.9371 9.93005 14.21 10.0942 14.495L10.3975 14.3203ZM10.5821 13.4482L10.8305 13.6948C11.0325 13.4912 11.2943 13.1483 11.483 12.9254L11.2159 12.6992L10.9487 12.4731C10.715 12.7491 10.5118 13.0222 10.3336 13.2017L10.5821 13.4482ZM11.2159 12.6992L11.483 12.9254C11.7283 12.6356 11.8194 12.4107 11.9525 12.1414L11.6387 11.9863L11.3249 11.8313C11.1764 12.1319 11.1257 12.264 10.9487 12.4731L11.2159 12.6992ZM11.6387 11.9863L11.9526 12.1411C12.1629 11.7146 12.0445 11.3399 11.9174 11.0823L11.6036 11.2373L11.2897 11.3923C11.3738 11.5625 11.3958 11.6876 11.3248 11.8316L11.6387 11.9863ZM11.6036 11.2373L11.9175 11.0825C11.8717 10.9897 11.6414 10.4291 11.3686 9.75909C11.1007 9.10109 10.8008 8.35983 10.6245 7.9313L10.3008 8.06445L9.97714 8.1976C10.1528 8.62465 10.4512 9.36227 10.7202 10.023C10.9843 10.6717 11.2293 11.2698 11.2896 11.3921L11.6036 11.2373ZM10.3008 8.06445L10.6245 7.93126C10.4383 7.47875 10.2202 7.20594 9.94539 7.07452C9.69873 6.95658 9.41118 6.98366 9.3682 6.9815L9.35063 7.33105L9.33307 7.68061C9.54934 7.69148 9.5655 7.66878 9.64343 7.70604C9.69318 7.72983 9.82061 7.81721 9.97716 8.19764L10.3008 8.06445ZM9.35063 7.33105L9.36839 6.98151C9.11327 6.96854 8.82396 6.96543 8.54107 6.96543L8.54106 7.31543L8.54106 7.66543C8.82103 7.66543 9.096 7.66857 9.33287 7.6806L9.35063 7.33105Z" fill="white"/>
</svg>
